<svg id="Ebene_2" xmlns="http://www.w3.org/2000/svg" viewBox="0 0 24 24">
    <defs>
        <style>
            .cls-1 {
                fill: #d5dfe2;
            }

            .cls-2 {
                fill: #2a303b;
            }
        </style>
    </defs>
    <g id="Ebene_1-2">
        <rect class="cls-2" width="24" height="24" rx="6" ry="6" />
        <path class="cls-1"
            d="M13.25,11.97l-4.43-4.43c-.15-.15-.22-.33-.21-.53s.09-.38.24-.53.33-.23.54-.23.39.08.54.23l4.95,4.95c.08.08.14.17.18.25s.05.18.05.28-.02.19-.05.28-.09.17-.18.25l-4.98,4.98c-.15.15-.33.22-.53.21s-.38-.09-.53-.24-.23-.33-.23-.54.08-.39.23-.54l4.4-4.4Z" />
    </g>
</svg>