<?xml version="1.0" encoding="UTF-8"?><svg id="Ebene_2" xmlns="http://www.w3.org/2000/svg" viewBox="0 0 24 24"><defs><style>.cls-1{fill:#d5dfe2;}.cls-2{fill:#2a303b;}</style></defs><g id="Ebene_1-2"><rect class="cls-2" width="24" height="24" rx="6" ry="6"/><path class="cls-1" d="M8.72,15.12h7.99v-7.13h-7.99v7.13ZM8.72,15.98c-.23,0-.43-.09-.6-.26s-.26-.37-.26-.6v-7.99c0-.23.09-.43.26-.6s.37-.26.6-.26h7.99c.23,0,.43.09.6.26s.26.37.26.6v7.99c0,.23-.09.43-.26.6s-.37.26-.6.26h-7.99ZM7.01,17.69c-.23,0-.43-.09-.6-.26s-.26-.37-.26-.6v-8.42c0-.12.04-.22.12-.31.08-.08.18-.12.31-.12s.22.04.3.12c.08.08.12.18.12.31v8.42h8.42c.12,0,.22.04.31.12.08.08.12.18.12.31s-.04.22-.12.3c-.08.08-.18.12-.31.12H7.01ZM8.72,7.13v7.99-7.99Z"/></g></svg>